[Header]
FileType HTR
DataType HTRS
FileVersion 1
NumSegments 22
NumFrames 6
DataFrameRate 24
EulerRotationOrder ZYX
CalibrationUnits mm
RotationUnits Degrees
GlobalAxisofGravity Y
BoneLengthAxis Y
ScaleFactor 1.0
[SegmentNames&Hierarchy]
reference	GLOBAL
Hips	reference
Spine	Hips
Spine1	Spine
Neck	Spine1
Head	Neck
LeftShoulder	Spine1
LeftArm	LeftShoulder
LeftForeArm	LeftArm
LeftHand	LeftForeArm
RightShoulder	Spine1
RightArm	RightShoulder
RightForeArm	RightArm
RightHand	RightForeArm
LeftUpLeg	Hips
LeftLeg	LeftUpLeg
LeftFoot	LeftLeg
LeftToeBase	LeftFoot
RightUpLeg	Hips
RightLeg	RightUpLeg
RightFoot	RightLeg
RightToeBase	RightFoot
[BasePosition]
reference	0	0	0	0	0	0	1
Hips	0	0	0	0	0	0	1
Spine	0	0	0	0	-0	90	1
Spine1	0	0	0	0	0	0	1
Neck	0	0	0	-7.352430803	-7.352430803	90	1
Head	0	0	0	0	-0	90	1
LeftShoulder	0	0	0	0	0	0	1
LeftArm	0	0	0	0	0	0	1
LeftForeArm	0	0	0	0	0	0	1
LeftHand	0	0	0	0	0	0	1
RightShoulder	0	0	0	0	-0	180	1
RightArm	0	0	0	0	-0	180	1
RightForeArm	0	0	0	0	-0	180	1
RightHand	0	0	0	0	-0	180	1
LeftUpLeg	0	0	0	0	-0	-90	1
LeftLeg	0	0	0	0	-0	-90	1
LeftFoot	0	0	0	66.57150701	-66.57150701	-90	1
LeftToeBase	0	0	0	0	-90	0	1
RightUpLeg	0	0	0	0	-0	-90	1
RightLeg	0	0	0	0	-0	-90	1
RightFoot	0	0	0	66.57150701	-66.57150701	-90	1
RightToeBase	0	0	0	0	-90	0	1
[reference]
1	0	0	0	0	-0	0	1.0
2	0	0	0	0	-0	0	1.0
3	0	0	0	0	-0	0	1.0
4	0	0	0	0	-0	0	1.0
5	0	0	0	0	-0	0	1.0
6	0	0	0	0	-0	0	1.0
[Hips]
1	1.488080025	8.572739601	0.8452299833	-0.187713623	-98.78451538	1.945159912	1.0
2	1.488080025	8.572739601	0.8452299833	1.758868337	-98.2754364	0.1320869029	1.0
3	1.488080025	8.572739601	0.8452299833	2.989481211	-97.51773834	-1.143306613	1.0
4	1.488080025	8.572739601	0.8452299833	4.417683601	-96.6441803	-2.696478844	1.0
5	1.488080025	8.572739601	0.8452299833	4.674485207	-95.96092987	-3.178761959	1.0
6	1.488080025	8.572739601	0.8452299833	4.63527298	-95.66618347	-3.35008812	1.0
[Spine]
1	0	0.7478299737	0	-9.827488899	0.177932173	-88.47234344	1.0
2	0	0.7478299737	0	-9.917711258	0.1171069145	-88.40345764	1.0
3	0	0.7478299737	0	-9.934762955	-0.1714213341	-88.42740631	1.0
4	0	0.7478299737	0	-9.809396744	-0.6810613871	-88.69742584	1.0
5	0	0.7478299737	0	-9.505720139	-1.060869575	-88.96765137	1.0
6	0	0.7478299737	0	-9.395147324	-1.199681282	-89.30513	1.0
[Spine1]
1	0	2.049309969	0	7.39231205	0.1616836041	-2.255948782	1.0
2	0	2.049309969	0	7.133616924	0.142215997	-2.501848459	1.0
3	0	2.049309969	0	7.028439522	0.05087089166	-2.500212669	1.0
4	0	2.049309969	0	7.040812492	-0.128405571	-2.188936234	1.0
5	0	2.049309969	0	7.043328762	-0.2701186538	-1.82992959	1.0
6	0	2.049309969	0	7.123107433	-0.3220071793	-1.524211407	1.0
[Neck]
1	0	2.231709957	0	0.1487461179	10.00972939	-86.9372406	1.0
2	0	2.231709957	0	0.07106739283	9.973176003	-87.1939621	1.0
3	0	2.231709957	0	0.009196774103	9.869707108	-87.21803284	1.0
4	0	2.231709957	0	-0.03485438973	9.849414825	-87.14759827	1.0
5	0	2.231709957	0	-0.238669306	9.652827263	-86.94046783	1.0
6	0	2.231709957	0	0.4577856362	12.37878132	-86.74591827	1.0
[Head]
1	0	1.413589954	0.1823999882	-14.60511684	2.860836506	-92.09251404	1.0
2	0	1.413589954	0.1823999882	-14.33973217	2.80935812	-91.86499023	1.0
3	0	1.413589954	0.1823999882	-14.37443542	2.702457428	-91.89880371	1.0
4	0	1.413589954	0.1823999882	-14.70057869	2.657731056	-91.96620178	1.0
5	0	1.413589954	0.1823999882	-14.84090328	2.778624058	-92.02210999	1.0
6	0	1.413589954	0.1823999882	-15.39318848	0.01969898492	-91.19001007	1.0
[LeftShoulder]
1	0.3649300039	1.825889945	-0.04271000251	-11.87255001	-8.2368536	4.261872292	1.0
2	0.3649300039	1.825889945	-0.04271000251	-11.87593842	-8.102023125	4.127460003	1.0
3	0.3649300039	1.825889945	-0.04271000251	-11.91816139	-8.169249535	4.026677608	1.0
4	0.3649300039	1.825889945	-0.04271000251	-12.06072044	-8.303303719	4.055182457	1.0
5	0.3649300039	1.825889945	-0.04271000251	-12.03346539	-8.480279922	4.063613415	1.0
6	0.3649300039	1.825889945	-0.04271000251	-11.50714302	-9.023879051	4.09484005	1.0
[LeftArm]
1	1.24003005	0	0	41.68354416	8.798232079	-81.7278595	1.0
2	1.24003005	0	0	41.13687897	8.695373535	-81.39682007	1.0
3	1.24003005	0	0	41.12762833	8.631220818	-81.32237244	1.0
4	1.24003005	0	0	41.63149261	8.600652695	-81.50537109	1.0
5	1.24003005	0	0	42.70093155	8.496686935	-81.61215973	1.0
6	1.24003005	0	0	41.92440033	8.099750519	-81.53618622	1.0
[LeftForeArm]
1	2.847419977	0	0	-12.18512821	-12.55096149	-4.36344099	1.0
2	2.847419977	0	0	-12.60537148	-12.77150154	-4.025168419	1.0
3	2.847419977	0	0	-12.74949646	-12.76095867	-3.703285456	1.0
4	2.847419977	0	0	-12.95133591	-12.71459198	-3.40737915	1.0
5	2.847419977	0	0	-13.37781811	-12.92416573	-2.991762161	1.0
6	2.847419977	0	0	-12.99282551	-13.20448303	-3.29217267	1.0
[LeftHand]
1	2.258270025	0	0	-12.51337528	-5.251348019	-3.312826157	1.0
2	2.258270025	0	0	-12.91592121	-5.137832642	-3.126646996	1.0
3	2.258270025	0	0	-13.06166363	-5.173479557	-2.263187885	1.0
4	2.258270025	0	0	-13.25430298	-5.160331726	-1.706859231	1.0
5	2.258270025	0	0	-13.64104462	-5.202664375	-1.669237733	1.0
6	2.258270025	0	0	-13.29672718	-5.365161896	-1.650988579	1.0
[RightShoulder]
1	-0.3646599948	1.825889945	-0.04271000251	-8.810171127	7.870845318	177.7323761	1.0
2	-0.3646599948	1.825889945	-0.04271000251	-8.977752686	7.890753269	177.6422119	1.0
3	-0.3646599948	1.825889945	-0.04271000251	-9.070261002	7.813298225	177.5860443	1.0
4	-0.3646599948	1.825889945	-0.04271000251	-9.089605331	7.806553841	177.5702057	1.0
5	-0.3646599948	1.825889945	-0.04271000251	-9.047130585	7.81296587	177.6242371	1.0
6	-0.3646599948	1.825889945	-0.04271000251	-8.547273636	8.180628777	177.910675	1.0
[RightArm]
1	-1.24003005	0	0	48.98300552	-5.632616043	-95.75019073	1.0
2	-1.24003005	0	0	48.53730392	-5.699225903	-95.96331787	1.0
3	-1.24003005	0	0	48.84029007	-5.60327816	-96.19509888	1.0
4	-1.24003005	0	0	47.7148056	-5.311561584	-96.66728973	1.0
5	-1.24003005	0	0	48.37417221	-5.125430107	-96.99076843	1.0
6	-1.24003005	0	0	48.25873947	-4.690608978	-97.54917908	1.0
[RightForeArm]
1	-2.847419977	0	0	-0.6494418383	13.03916073	178.470459	1.0
2	-2.847419977	0	0	-0.2067459673	13.03615856	178.8892822	1.0
3	-2.847419977	0	0	-0.376649797	12.81192207	178.7872467	1.0
4	-2.847419977	0	0	0.2907702327	12.73048782	179.1967468	1.0
5	-2.847419977	0	0	-0.1972596347	12.68703079	178.6128235	1.0
6	-2.847419977	0	0	-0.5024721622	12.84561443	178.2745667	1.0
[RightHand]
1	-2.258270025	0	0	-0.4793808758	7.633081913	179.9306488	1.0
2	-2.258270025	0	0	-0.0800011903	7.633244038	180.0010834	1.0
3	-2.258270025	0	0	-0.2485163212	7.528770447	179.8803101	1.0
4	-2.258270025	0	0	0.3423682451	7.331385136	179.4043732	1.0
5	-2.258270025	0	0	-0.111519292	7.24452734	178.9239349	1.0
6	-2.258270025	0	0	-0.4044232368	7.277421474	178.4872894	1.0
[LeftUpLeg]
1	0.9119900465	0	0	2.507129431	-6.697764874	91.88022614	1.0
2	0.9119900465	0	0	2.316205978	-6.907521725	91.60090637	1.0
3	0.9119900465	0	0	2.19790411	-6.619229317	91.51190186	1.0
4	0.9119900465	0	0	2.175858259	-6.373177052	91.48381805	1.0
5	0.9119900465	0	0	2.121711731	-6.04540205	91.54046631	1.0
6	0.9119900465	0	0	2.10076046	-6.141377449	91.59382629	1.0
[LeftLeg]
1	0	-4.371409893	0	3.376896858	-3.928279638	87.8507843	1.0
2	0	-4.371409893	0	3.460022449	-3.961854935	87.93135834	1.0
3	0	-4.371409893	0	3.535449982	-4.314750195	88.00149536	1.0
4	0	-4.371409893	0	3.72116828	-4.736528397	87.92642212	1.0
5	0	-4.371409893	0	4.109950542	-5.020679951	88.06453705	1.0
6	0	-4.371409893	0	4.548157692	-5.459477901	88.01805115	1.0
[LeftFoot]
1	0	-3.918009996	0	-86.23166656	114.3966904	-33.46151733	1.0
2	0	-3.918009996	0	-86.56806946	114.2399063	-33.78316116	1.0
3	0	-3.918009996	0	-87.0592804	113.9260406	-34.48990631	1.0
4	0	-3.918009996	0	-87.83148193	113.4372559	-35.40270996	1.0
5	0	-3.918009996	0	-88.88707733	112.9360809	-36.45722961	1.0
6	0	-3.918009996	0	-88.27197266	112.9453278	-35.59927368	1.0
[LeftToeBase]
1	0	-0.5927900076	1.367989898	0	0	0	1.0
2	0	-0.5927900076	1.367989898	0	0	0	1.0
3	0	-0.5927900076	1.367989898	0	0	0	1.0
4	0	-0.5927900076	1.367989898	0	0	0	1.0
5	0	-0.5927900076	1.367989898	0	0	0	1.0
6	0	-0.5927900076	1.367989898	0	0	0	1.0
[RightUpLeg]
1	-0.9119900465	0	0	5.156937122	-11.70781898	90.87696838	1.0
2	-0.9119900465	0	0	5.18588686	-11.88422394	90.48466492	1.0
3	-0.9119900465	0	0	5.415839195	-12.07395554	90.22940063	1.0
4	-0.9119900465	0	0	5.877972603	-11.77918911	90.01416779	1.0
5	-0.9119900465	0	0	6.205389023	-11.17962646	90.08239746	1.0
6	-0.9119900465	0	0	6.502354145	-11.14721394	90.12442017	1.0
[RightLeg]
1	0	-4.371409893	0	-1.205435395	-1.809848666	90.54814148	1.0
2	0	-4.371409893	0	-1.259393096	-2.181945801	90.82491302	1.0
3	0	-4.371409893	0	-1.458058476	-2.119031668	91.1270752	1.0
4	0	-4.371409893	0	-1.78677702	-2.256667614	91.35966492	1.0
5	0	-4.371409893	0	-1.829620361	-2.600196838	91.45232391	1.0
6	0	-4.371409893	0	-1.91921711	-2.793059826	91.49375916	1.0
[RightFoot]
1	0	-3.918009996	0	31.36976433	64.14950562	76.11199188	1.0
2	0	-3.918009996	0	31.15820313	64.13314819	76.30133057	1.0
3	0	-3.918009996	0	30.45354271	63.93833923	75.53892517	1.0
4	0	-3.918009996	0	29.12838173	63.69749451	74.04851532	1.0
5	0	-3.918009996	0	28.04778099	63.40451813	72.87953186	1.0
6	0	-3.918009996	0	27.86946678	63.41605377	72.68347168	1.0
[RightToeBase]
1	0	-0.5927900076	1.367989898	0	0	0	1.0
2	0	-0.5927900076	1.367989898	0	0	0	1.0
3	0	-0.5927900076	1.367989898	0	0	0	1.0
4	0	-0.5927900076	1.367989898	0	0	0	1.0
5	0	-0.5927900076	1.367989898	0	0	0	1.0
6	0	-0.5927900076	1.367989898	0	0	0	1.0
[EndOfFile]
